<svg class="vector" width="300px" height="300px" xmlns="http://www.w3.org/2000/svg" baseProfile="full" version="1.1" style="width: 300px; height: 300px; stroke: rgb(0, 0, 0); stroke-width: 10; fill: none; stroke-linecap: round;"><g transform="translate(0,0)"><path d="M30,15 A-15,15 0 0,0 15,30 A15,15 0 0,0 30,45  A15,-15 0 0,0 45,30 A-15,-15 0 0,0 30,15  M30,255 A-15,15 0 0,0 15,270 A15,15 0 0,0 30,285  M30,255 A15,15 0 0,1 45,270 A-15,15 0 0,1 30,285  M45,270 L270,270  L120,150  L270,30  L45,30  "></path></g><g><path d="M0,0" transform=""></path></g></svg>