<svg class="vector" width="300px" height="300px" xmlns="http://www.w3.org/2000/svg" baseProfile="full" version="1.1" style="width: 300px; height: 300px; stroke: rgb(0, 0, 0); stroke-width: 10; fill: none; stroke-linecap: round;"><g transform="translate(0,0)"><path d="M30,15 A-15,15 0 0,0 15,30 A15,15 0 0,0 30,45  M30,15 A15,15 0 0,1 45,30 A-15,15 0 0,1 30,45  M270,135 A-15,15 0 0,0 255,150 A15,15 0 0,0 270,165  M270,135 A15,15 0 0,1 285,150 A-15,15 0 0,1 270,165  M150,255 A-15,15 0 0,0 135,270 A15,15 0 0,0 150,285  M150,255 A15,15 0 0,1 165,270 A-15,15 0 0,1 150,285  M45,30 A225,105 0 0,1 270,135  M150,45 L150,255  "></path></g><g><path d="M0,0" transform=""></path></g></svg>