<svg class="vector" width="300px" height="300px" xmlns="http://www.w3.org/2000/svg" baseProfile="full" version="1.1" style="width: 300px; height: 300px; stroke: rgb(0, 0, 0); stroke-width: 10; fill: none; stroke-linecap: round;"><g transform="translate(0,0)"><path d="M270,15 A15,15 0 0,1 285,30 A-15,15 0 0,1 270,45  M270,15 A-15,15 0 0,0 255,30 A15,15 0 0,0 270,45  M30,255 A-15,15 0 0,0 15,270 A15,15 0 0,0 30,285  A15,-15 0 0,0 45,270 A-15,-15 0 0,0 30,255  M30,75 A-15,15 0 0,0 15,90 A15,15 0 0,0 30,105  M30,75 A15,15 0 0,1 45,90 A-15,15 0 0,1 30,105  M270,195 A-15,15 0 0,0 255,210 A15,15 0 0,0 270,225  M270,195 A15,15 0 0,1 285,210 A-15,15 0 0,1 270,225  M45,90 L255,30  M45,90 L255,210  M45,270 L255,210  "></path></g><g><path d="M0,0" transform=""></path></g></svg>