<svg class="vector" width="300px" height="300px" xmlns="http://www.w3.org/2000/svg" baseProfile="full" version="1.1" style="width: 300px; height: 300px; stroke: rgb(0, 0, 0); stroke-width: 10; fill: none; stroke-linecap: round;"><g transform="translate(0,0)"><path d="M270,15 A-15,15 0 0,0 255,30 A15,15 0 0,0 270,45  A15,-15 0 0,0 285,30 A-15,-15 0 0,0 270,15  M270,45 A-180,225 0 0,1 90,270 A-60,0 0 0,1 30,270  M90,75 A-15,15 0 0,0 75,90 A15,15 0 0,0 90,105  A15,-15 0 0,0 105,90 A-15,-15 0 0,0 90,75  M90,105 A135,90 0 0,0 225,195  "></path></g><g><path d="M0,0" transform=""></path></g></svg>